<?xml version="1.0" encoding="UTF-8" standalone="no"?>
<!-- Created with Inkscape (http://www.inkscape.org/) -->

<svg
   xmlns:dc="http://purl.org/dc/elements/1.1/"
   xmlns:cc="http://creativecommons.org/ns#"
   xmlns:rdf="http://www.w3.org/1999/02/22-rdf-syntax-ns#"
   xmlns:svg="http://www.w3.org/2000/svg"
   xmlns="http://www.w3.org/2000/svg"
   xmlns:sodipodi="http://sodipodi.sourceforge.net/DTD/sodipodi-0.dtd"
   xmlns:inkscape="http://www.inkscape.org/namespaces/inkscape"
   width="64px"
   height="64px"
   id="svg3933"
   version="1.1"
   inkscape:version="0.48.4 r9939"
   sodipodi:docname="left-arrow.svg">
  <defs
     id="defs3935" />
  <sodipodi:namedview
     id="base"
     pagecolor="#ffffff"
     bordercolor="#666666"
     borderopacity="1.0"
     inkscape:pageopacity="0.0"
     inkscape:pageshadow="2"
     inkscape:zoom="5.5"
     inkscape:cx="23.493857"
     inkscape:cy="32"
     inkscape:current-layer="layer1"
     showgrid="true"
     inkscape:document-units="px"
     inkscape:grid-bbox="true"
     inkscape:window-width="991"
     inkscape:window-height="682"
     inkscape:window-x="2"
     inkscape:window-y="91"
     inkscape:window-maximized="0" />
  <metadata
     id="metadata3938">
    <rdf:RDF>
      <cc:Work
         rdf:about="">
        <dc:format>image/svg+xml</dc:format>
        <dc:type
           rdf:resource="http://purl.org/dc/dcmitype/StillImage" />
        <dc:title></dc:title>
      </cc:Work>
    </rdf:RDF>
  </metadata>
  <g
     id="layer1"
     inkscape:label="Layer 1"
     inkscape:groupmode="layer">
    <path
       inkscape:connector-curvature="0"
       d="m 31.9999,6 c -13.8071,0 -25,9.3804 -25,23.1875 l 0,8.7813 c -1.5187,1.0365 -1,8.2438 -1,11.2812 0,4.7186 3.3618,7.1815 6,7.7813 l 0,-21.0313 -1,0 0.094,-8.0312 C 11.0937,18.5246 21.9086,10 31.9999,10 c 10.0913,0 20.9062,8.5246 20.9062,17.9688 l 0.094,8.0312 -1,0 0,21.0313 c 2.6382,-0.5998 6,-3.0627 6,-7.7813 0,-3.0374 0.5187,-10.2447 -1,-11.2812 l 0,-8.7813 C 57.0001,15.3804 45.8072,6 32.0001,6 z m -16,30 c -1.108,0 -2,0.8445 -2,1.9063 l 0,18.1875 c 0,1.0618 0.892,1.9062 2,1.9062 l 5,0 c 1.108,0 2,-0.8444 2,-1.9062 l 0,-18.1875 c 0,-1.0618 -0.892,-1.9063 -2,-1.9063 l -5,0 z m 27,0 c -1.108,0 -2,0.8445 -2,1.9063 l 0,18.1875 c 0,1.0618 0.892,1.9062 2,1.9062 l 5,0 c 1.108,0 2,-0.8444 2,-1.9062 l 0,-18.1875 c 0,-1.0618 -0.892,-1.9063 -2,-1.9063 l -5,0 z"
       id="rect4229"
       style="fill:#000000;fill-opacity:1;fill-rule:nonzero;stroke:none;display:inline;enable-background:new" />
  </g>
</svg>
