<?xml version="1.0" encoding="UTF-8" standalone="no"?>
<!-- Created with Inkscape (http://www.inkscape.org/) -->

<svg
   xmlns:dc="http://purl.org/dc/elements/1.1/"
   xmlns:cc="http://creativecommons.org/ns#"
   xmlns:rdf="http://www.w3.org/1999/02/22-rdf-syntax-ns#"
   xmlns:svg="http://www.w3.org/2000/svg"
   xmlns="http://www.w3.org/2000/svg"
   xmlns:sodipodi="http://sodipodi.sourceforge.net/DTD/sodipodi-0.dtd"
   xmlns:inkscape="http://www.inkscape.org/namespaces/inkscape"
   width="64px"
   height="64px"
   id="svg3933"
   version="1.1"
   inkscape:version="0.48.4 r9939"
   sodipodi:docname="headphones.svg">
  <defs
     id="defs3935" />
  <sodipodi:namedview
     id="base"
     pagecolor="#ffffff"
     bordercolor="#666666"
     borderopacity="1.0"
     inkscape:pageopacity="0.0"
     inkscape:pageshadow="2"
     inkscape:zoom="5.5"
     inkscape:cx="23.493857"
     inkscape:cy="32"
     inkscape:current-layer="layer1"
     showgrid="true"
     inkscape:document-units="px"
     inkscape:grid-bbox="true"
     inkscape:window-width="991"
     inkscape:window-height="682"
     inkscape:window-x="2"
     inkscape:window-y="91"
     inkscape:window-maximized="0" />
  <metadata
     id="metadata3938">
    <rdf:RDF>
      <cc:Work
         rdf:about="">
        <dc:format>image/svg+xml</dc:format>
        <dc:type
           rdf:resource="http://purl.org/dc/dcmitype/StillImage" />
        <dc:title></dc:title>
      </cc:Work>
    </rdf:RDF>
  </metadata>
  <g
     id="layer1"
     inkscape:label="Layer 1"
     inkscape:groupmode="layer">
    <path
       inkscape:connector-curvature="0"
       d="m 42,7.4999997 c -2.216,0 -4,1.611 -4,3.5938003 l 0,9.8125 c 0,1.9827 1.784,3.5937 4,3.5937 2.216,0 4,-1.611 4,-3.5937 l 0,-9.8125 C 46,9.1109997 44.216,7.4999997 42,7.4999997 z M 8.0000002,14.5 l 0,3 L 36,17.5 l 0,-3 -27.9999998,0 z M 48,14.5 l 0,3 8,0 0,-3 -8,0 z m -26,9 c -2.216,0 -4,1.611 -4,3.5938 l 0,9.8125 c 0,1.9827 1.784,3.5937 4,3.5937 2.216,0 4,-1.611 4,-3.5937 l 0,-9.8125 C 26,25.111 24.216,23.5 22,23.5 z m -13.9999998,7 0,3 7.9999998,0 0,-3 -7.9999998,0 z M 28,30.5 l 0,3 28,0 0,-3 -28,0 z m 14,9 c -2.216,0 -4,1.611 -4,3.5938 l 0,9.8125 c 0,1.9827 1.784,3.5937 4,3.5937 2.216,0 4,-1.611 4,-3.5937 l 0,-9.8125 C 46,41.111 44.216,39.5 42,39.5 z m -33.9999998,7 0,3 L 36,49.5 l 0,-3 -27.9999998,0 z M 48,46.5 l 0,3 8,0 0,-3 -8,0 z"
       id="rect4208"
       style="fill:#000000;fill-opacity:1;fill-rule:nonzero;stroke:none;display:inline;enable-background:new" />
  </g>
</svg>
