<?xml version="1.0" encoding="UTF-8" standalone="no"?>
<!-- Created with Inkscape (http://www.inkscape.org/) -->

<svg
   xmlns:dc="http://purl.org/dc/elements/1.1/"
   xmlns:cc="http://creativecommons.org/ns#"
   xmlns:rdf="http://www.w3.org/1999/02/22-rdf-syntax-ns#"
   xmlns:svg="http://www.w3.org/2000/svg"
   xmlns="http://www.w3.org/2000/svg"
   version="1.1"
   width="64"
   height="64"
   id="svg3933">
  <g
     id="layer1">
    <path
       d="m 42,7.4999997 c -2.216,0 -4,1.611 -4,3.5938003 l 0,9.8125 c 0,1.9827 1.784,3.5937 4,3.5937 2.216,0 4,-1.611 4,-3.5937 l 0,-9.8125 C 46,9.1109997 44.216,7.4999997 42,7.4999997 z M 8.0000002,14.5 l 0,3 L 36,17.5 l 0,-3 -27.9999998,0 z M 48,14.5 l 0,3 8,0 0,-3 -8,0 z m -26,9 c -2.216,0 -4,1.611 -4,3.5938 l 0,9.8125 c 0,1.9827 1.784,3.5937 4,3.5937 2.216,0 4,-1.611 4,-3.5937 l 0,-9.8125 C 26,25.111 24.216,23.5 22,23.5 z m -13.9999998,7 0,3 7.9999998,0 0,-3 -7.9999998,0 z M 28,30.5 l 0,3 28,0 0,-3 -28,0 z m 14,9 c -2.216,0 -4,1.611 -4,3.5938 l 0,9.8125 c 0,1.9827 1.784,3.5937 4,3.5937 2.216,0 4,-1.611 4,-3.5937 l 0,-9.8125 C 46,41.111 44.216,39.5 42,39.5 z m -33.9999998,7 0,3 L 36,49.5 l 0,-3 -27.9999998,0 z M 48,46.5 l 0,3 8,0 0,-3 -8,0 z"
       id="rect4208"
       class="btn" />
  </g>
</svg>
