<?xml version="1.0" encoding="UTF-8" standalone="no"?>
<!-- Created with Inkscape (http://www.inkscape.org/) -->

<svg
   xmlns:dc="http://purl.org/dc/elements/1.1/"
   xmlns:cc="http://creativecommons.org/ns#"
   xmlns:rdf="http://www.w3.org/1999/02/22-rdf-syntax-ns#"
   xmlns:svg="http://www.w3.org/2000/svg"
   xmlns="http://www.w3.org/2000/svg"
   xmlns:sodipodi="http://sodipodi.sourceforge.net/DTD/sodipodi-0.dtd"
   xmlns:inkscape="http://www.inkscape.org/namespaces/inkscape"
   version="1.1"
   width="64"
   height="64"
   id="svg3933"
   inkscape:version="0.48.4 r9939"
   sodipodi:docname="tumbs-up-plain.svg">
  <metadata
     id="metadata3827">
    <rdf:RDF>
      <cc:Work
         rdf:about="">
        <dc:format>image/svg+xml</dc:format>
        <dc:type
           rdf:resource="http://purl.org/dc/dcmitype/StillImage" />
        <dc:title></dc:title>
      </cc:Work>
    </rdf:RDF>
  </metadata>
  <defs
     id="defs3825" />
  <sodipodi:namedview
     pagecolor="#ffffff"
     bordercolor="#666666"
     borderopacity="1"
     objecttolerance="10"
     gridtolerance="10"
     guidetolerance="10"
     inkscape:pageopacity="0"
     inkscape:pageshadow="2"
     inkscape:window-width="925"
     inkscape:window-height="813"
     id="namedview3823"
     showgrid="false"
     inkscape:zoom="3.6875"
     inkscape:cx="-2.440678"
     inkscape:cy="32"
     inkscape:window-x="0"
     inkscape:window-y="27"
     inkscape:window-maximized="0"
     inkscape:current-layer="svg3933" />
  <path
     inkscape:connector-curvature="0"
     d="m 27.156179,52.7478 c 1.3483,0 1.9741,-0.7896 1.9741,-0.7897 0,0 -0.1316,-5.1587 -0.1316,-6.3501 0,-1.1914 5.8626,-10.7196 7.3044,-11.9435 0.6419,-0.5465 1.8707,-0.826 2.8565,-1.4537 l 0,1.1846 c 0,1.0924 0.7264,1.8568 1.8155,1.8568 l 13.6873,0 c 0.5436,0 1.0778,-0.1304 1.4477,-0.5407 0.3787,-0.4004 0.5707,-0.9352 0.5264,-1.4806 l -1.6121,-20.1691 c -0.08,-1.0175 -0.9083,-1.8096 -1.9413,-1.8096 l -12.108,0 c -1.0891,0 -1.7703,0.8847 -1.8155,1.9741 l 0,3.027 -1.5404,-0.4218 c -0.9896,-0.271 -2.2927,-1.5794 -3.6851,-1.5793 l -18.0633,0 c -4.3173,0 -5.7992,5.4946 -1.4807,5.4946 -4.3184,0 -5.8299996,5.4946 -1.5134,5.4946 -4.3164996,0 -5.7660996,5.5276 -1.4477,5.5276 -4.3183996,0 -5.7971996,5.4947 -1.4805996,5.4947 l 14.5427996,0 c -0.5285,2.0944 -1.5135,8.7849 -1.5135,8.7849 0.2197,3.2429 2.4018,7.3042 2.4019,7.3042 0.69,0.2878 1.2825,0.3949 1.7766,0.3949 z m 26.2231,-20.4955 -11.2197,0 0,-18 9.8378,0 z"
     id="path7896"
     style="fill:#000000;fill-opacity:1;fill-rule:nonzero;stroke:none;display:inline;enable-background:new" />
</svg>
