<?xml version="1.0" encoding="UTF-8" standalone="no"?>
<!-- Created with Inkscape (http://www.inkscape.org/) -->
<svg id="svg3933" xmlns:rdf="http://www.w3.org/1999/02/22-rdf-syntax-ns#" xmlns="http://www.w3.org/2000/svg" viewBox="0 0 64 64" version="1.1" xmlns:cc="http://creativecommons.org/ns#" xmlns:dc="http://purl.org/dc/elements/1.1/">
 <path id="path4426-3" style="enable-background:new;" d="m36.844,11.252c-1.3483,0-1.9741,0.7896-1.9741,0.7897,0,0,0.1316,5.1587,0.1316,6.3501s-5.8626,10.72-7.3044,11.944c-0.6419,0.5465-1.8707,0.826-2.8565,1.4537v-1.1846c0-1.0924-0.7264-1.8568-1.8155-1.8568h-13.687c-0.5436,0-1.0778,0.1304-1.4477,0.5407-0.3787,0.4004-0.5707,0.9352-0.5264,1.4806l1.6121,20.169c0.08,1.0175,0.9083,1.8096,1.9413,1.8096h12.108c1.0891,0,1.7703-0.8847,1.8155-1.9741v-3.027l1.5404,0.4218c0.9896,0.271,2.2927,1.5794,3.6851,1.5793h18.063c4.3173,0,5.7992-5.4946,1.4807-5.4946,4.3184,0,5.83-5.4946,1.5134-5.4946,4.3165,0,5.7661-5.5276,1.4477-5.5276,4.3184,0,5.7972-5.4947,1.4806-5.4947h-14.543c0.5285-2.0944,1.5135-8.7849,1.5135-8.7849-0.2197-3.2429-2.4018-7.3042-2.4019-7.3042-0.69-0.2878-1.2825-0.3949-1.7766-0.3949zm-26.223,20.496,11.22,0,0,18-9.8378,0z" fill-rule="nonzero" fill="#000"/>
</svg>
