<?xml version="1.0" encoding="UTF-8" standalone="no"?>
<!-- Created with Inkscape (http://www.inkscape.org/) -->

<svg
   xmlns:dc="http://purl.org/dc/elements/1.1/"
   xmlns:cc="http://creativecommons.org/ns#"
   xmlns:rdf="http://www.w3.org/1999/02/22-rdf-syntax-ns#"
   xmlns:svg="http://www.w3.org/2000/svg"
   xmlns="http://www.w3.org/2000/svg"
   xmlns:sodipodi="http://sodipodi.sourceforge.net/DTD/sodipodi-0.dtd"
   xmlns:inkscape="http://www.inkscape.org/namespaces/inkscape"
   width="64px"
   height="64px"
   id="svg3933"
   version="1.1"
   inkscape:version="0.48.4 r9939"
   sodipodi:docname="no-volume.svg">
  <defs
     id="defs3935" />
  <sodipodi:namedview
     id="base"
     pagecolor="#ffffff"
     bordercolor="#666666"
     borderopacity="1.0"
     inkscape:pageopacity="0.0"
     inkscape:pageshadow="2"
     inkscape:zoom="3.8890873"
     inkscape:cx="14.071517"
     inkscape:cy="32"
     inkscape:current-layer="layer1"
     showgrid="true"
     inkscape:document-units="px"
     inkscape:grid-bbox="true"
     inkscape:window-width="991"
     inkscape:window-height="682"
     inkscape:window-x="2"
     inkscape:window-y="91"
     inkscape:window-maximized="0" />
  <metadata
     id="metadata3938">
    <rdf:RDF>
      <cc:Work
         rdf:about="">
        <dc:format>image/svg+xml</dc:format>
        <dc:type
           rdf:resource="http://purl.org/dc/dcmitype/StillImage" />
        <dc:title></dc:title>
      </cc:Work>
    </rdf:RDF>
  </metadata>
  <g
     id="layer1"
     inkscape:label="Layer 1"
     inkscape:groupmode="layer">
    <path
       inkscape:connector-curvature="0"
       d="m 28.281,8.0005001 c -0.1062,0 -0.207,0.023 -0.3125,0.031 C 23.0218,8.4340001 18.8503,18.1047 14.281,23.0002 l -6,0 c -3,0 -3,18 0,18 l 6,0 c 4.5693,4.8956 8.8187,14.5663 13.6875,14.9688 0.1023,0.021 0.2089,0.031 0.3125,0.031 3.3137,0 6,-10.7452 6,-24 0,-13.2548 -2.6863,-23.9999999 -6,-23.9999999 z m 0,3.9999999 c 1.6568,0 3,8.9543 3,20 0,11.0457 -1.3432,20 -3,20 -1.2961,0 -2.3932,-5.513 -2.8125,-13.1875 1.5518,-1.5564 2.5625,-4.0193 2.5625,-6.8125 0,-2.7932 -1.0107,-5.2561 -2.5625,-6.8125 0.4193,-7.6745 1.5164,-13.1875 2.8125,-13.1875 z"
       id="path6835"
       style="fill:#000000;fill-opacity:1;stroke:none;display:inline;enable-background:new" />
  </g>
</svg>
